<mxfile host="app.diagrams.net" modified="2023-08-24T13:26:28.856Z" agent="Mozilla/5.0 (Windows NT 10.0; Win64; x64) AppleWebKit/537.36 (KHTML, like Gecko) Chrome/116.0.0.0 Safari/537.36" version="21.6.8" etag="MQY62E_DnJmlu1uG0ldu" type="github">
  <diagram name="ページ1" id="JBxdyAhe4_e3N06R-8nA">
    <mxGraphModel>
      <root>
        <mxCell id="0" />
        <mxCell id="1" parent="0" />
      </root>
    </mxGraphModel>
  </diagram>
</mxfile>
